<svg xmlns="http://www.w3.org/2000/svg" xmlns:xlink="http://www.w3.org/1999/xlink" width="384" zoomAndPan="magnify" viewBox="0 0 288 287.999989" height="384" preserveAspectRatio="xMidYMid meet" version="1.0"><defs><g/><clipPath id="6621baab3e"><path d="M 56.046875 0.800781 L 190 0.800781 L 190 176.992188 L 56.046875 176.992188 Z M 56.046875 0.800781 " clip-rule="nonzero"/></clipPath><clipPath id="476cfcdcde"><path d="M 90.714844 24.5625 L 155.285156 24.5625 L 155.285156 89.136719 L 90.714844 89.136719 Z M 90.714844 24.5625 " clip-rule="nonzero"/></clipPath><clipPath id="933ddbd419"><path d="M 123 24.5625 C 105.167969 24.5625 90.714844 39.019531 90.714844 56.851562 C 90.714844 74.679688 105.167969 89.136719 123 89.136719 C 140.832031 89.136719 155.285156 74.679688 155.285156 56.851562 C 155.285156 39.019531 140.832031 24.5625 123 24.5625 Z M 123 24.5625 " clip-rule="nonzero"/></clipPath><clipPath id="c6b126b6c4"><path d="M 0.714844 0.5625 L 65.285156 0.5625 L 65.285156 65.136719 L 0.714844 65.136719 Z M 0.714844 0.5625 " clip-rule="nonzero"/></clipPath><clipPath id="844ddb0bd6"><path d="M 33 0.5625 C 15.167969 0.5625 0.714844 15.019531 0.714844 32.851562 C 0.714844 50.679688 15.167969 65.136719 33 65.136719 C 50.832031 65.136719 65.285156 50.679688 65.285156 32.851562 C 65.285156 15.019531 50.832031 0.5625 33 0.5625 Z M 33 0.5625 " clip-rule="nonzero"/></clipPath><clipPath id="30c2317a81"><rect x="0" width="66" y="0" height="66"/></clipPath><clipPath id="5a6ebb6f07"><path d="M 97.269531 29.011719 L 148.808594 29.011719 L 148.808594 80.550781 L 97.269531 80.550781 Z M 97.269531 29.011719 " clip-rule="nonzero"/></clipPath><clipPath id="c75069f10f"><path d="M 0.839844 183 L 256.679688 183 L 256.679688 202.398438 L 0.839844 202.398438 Z M 0.839844 183 " clip-rule="nonzero"/></clipPath><clipPath id="ac6279fc32"><rect x="0" width="257" y="0" height="20"/></clipPath><clipPath id="fd26854aae"><rect x="0" width="257" y="0" height="203"/></clipPath></defs><g transform="matrix(1, 0, 0, 1, 21, 28)"><g clip-path="url(#fd26854aae)"><g clip-path="url(#6621baab3e)"><path fill="#0041a0" d="M 144.375 55.65625 C 144.375 43.863281 134.78125 34.269531 122.988281 34.269531 C 111.191406 34.269531 101.601562 43.863281 101.601562 55.65625 C 101.601562 67.453125 111.191406 77.042969 122.988281 77.042969 C 134.78125 77.042969 144.375 67.453125 144.375 55.65625 Z M 110.902344 55.65625 C 110.902344 48.996094 116.328125 43.574219 122.988281 43.574219 C 129.648438 43.574219 135.070312 48.996094 135.070312 55.65625 C 135.070312 62.316406 129.648438 67.742188 122.988281 67.742188 C 116.328125 67.742188 110.902344 62.328125 110.902344 55.65625 Z M 155.421875 168.15625 L 156.464844 168.15625 L 156.464844 177.460938 L 155.421875 177.460938 C 144.207031 177.460938 135.078125 168.332031 135.078125 157.117188 L 135.078125 123.175781 C 135.078125 116.496094 130.128906 110.949219 123.804688 110.539062 C 120.417969 110.308594 117.1875 111.46875 114.722656 113.777344 C 112.253906 116.085938 110.894531 119.21875 110.894531 122.597656 L 110.894531 157.109375 C 110.894531 168.324219 101.769531 177.453125 90.554688 177.453125 L 89.507812 177.453125 L 89.507812 168.148438 L 90.554688 168.148438 C 96.644531 168.148438 101.59375 163.191406 101.59375 157.109375 L 101.59375 122.597656 C 101.59375 116.707031 104.058594 111.019531 108.351562 106.992188 C 112.710938 102.902344 118.414062 100.875 124.390625 101.253906 C 135.589844 101.984375 144.363281 111.609375 144.363281 123.167969 L 144.363281 157.109375 C 144.375 163.207031 149.332031 168.15625 155.421875 168.15625 Z M 161.109375 140.382812 L 161.109375 123.402344 C 161.109375 108.808594 152.929688 95.875 141.03125 89.222656 C 152.972656 82.78125 161.109375 70.152344 161.109375 55.65625 C 161.109375 34.640625 144.003906 17.535156 122.988281 17.535156 C 101.96875 17.535156 84.867188 34.640625 84.867188 55.65625 C 84.867188 70.082031 92.921875 82.667969 104.777344 89.136719 C 101.8125 90.757812 99.023438 92.75 96.519531 95.164062 C 89.007812 102.414062 84.867188 112.152344 84.867188 122.597656 L 84.867188 140.375 C 84.867188 146.464844 79.917969 151.414062 73.828125 151.414062 L 72.78125 151.414062 L 72.78125 160.714844 L 73.828125 160.714844 C 85.042969 160.714844 94.167969 151.589844 94.167969 140.375 L 94.167969 122.597656 C 94.167969 114.707031 97.300781 107.335938 102.980469 101.851562 C 108.65625 96.375 116.140625 93.503906 124.050781 93.785156 C 139.363281 94.332031 151.816406 107.617188 151.816406 123.394531 L 151.816406 140.375 C 151.816406 151.589844 160.941406 160.714844 172.15625 160.714844 L 173.199219 160.714844 L 173.199219 151.414062 L 172.15625 151.414062 C 166.066406 151.421875 161.109375 146.464844 161.109375 140.382812 Z M 94.167969 55.65625 C 94.167969 39.765625 107.09375 26.839844 122.988281 26.839844 C 138.878906 26.839844 151.804688 39.765625 151.804688 55.65625 C 151.804688 71.550781 138.886719 84.484375 122.988281 84.484375 C 107.085938 84.484375 94.167969 71.550781 94.167969 55.65625 Z M 189.933594 134.6875 L 189.933594 143.992188 L 188.890625 143.992188 C 177.675781 143.992188 168.550781 134.863281 168.550781 123.648438 C 168.550781 112.144531 164.355469 101.050781 156.730469 92.417969 L 153.980469 89.300781 L 156.773438 86.222656 C 164.363281 77.839844 168.550781 66.984375 168.550781 55.664062 C 168.550781 30.542969 148.113281 10.105469 122.988281 10.105469 C 97.863281 10.105469 77.425781 30.542969 77.425781 55.664062 C 77.425781 66.898438 81.550781 77.683594 89.042969 86.027344 L 91.835938 89.136719 L 89.042969 92.242188 C 81.550781 100.597656 77.417969 111.382812 77.417969 122.605469 L 77.417969 123.648438 C 77.417969 134.863281 68.289062 143.992188 57.074219 143.992188 L 56.046875 143.992188 L 56.046875 134.6875 L 57.09375 134.6875 C 63.183594 134.6875 68.140625 129.730469 68.140625 123.640625 L 68.140625 122.597656 C 68.140625 110.425781 72.167969 98.683594 79.558594 89.125 C 72.167969 79.570312 68.140625 67.828125 68.140625 55.65625 C 68.132812 25.40625 92.746094 0.800781 122.988281 0.800781 C 153.234375 0.800781 177.84375 25.40625 177.84375 55.65625 C 177.84375 67.941406 173.753906 79.761719 166.257812 89.371094 C 173.753906 99.191406 177.84375 111.214844 177.84375 123.640625 C 177.84375 129.730469 182.800781 134.6875 188.890625 134.6875 Z M 189.933594 134.6875 " fill-opacity="1" fill-rule="nonzero"/></g><g clip-path="url(#476cfcdcde)"><g clip-path="url(#933ddbd419)"><g transform="matrix(1, 0, 0, 1, 90, 24)"><g clip-path="url(#30c2317a81)"><g clip-path="url(#c6b126b6c4)"><g clip-path="url(#844ddb0bd6)"><path fill="#0041a0" d="M 0.714844 0.5625 L 65.285156 0.5625 L 65.285156 65.136719 L 0.714844 65.136719 Z M 0.714844 0.5625 " fill-opacity="1" fill-rule="nonzero"/></g></g></g></g></g></g><g clip-path="url(#5a6ebb6f07)"><path fill="#ffffff" d="M 108.121094 44.980469 C 107.859375 44.667969 107.429688 44.632812 107.09375 44.878906 C 106.875 45.039062 106.832031 45.238281 106.832031 45.378906 C 106.832031 45.480469 106.832031 45.574219 107.574219 46.65625 C 108.042969 47.339844 108.648438 48.1875 109.371094 49.179688 L 111.734375 52.445312 C 112.578125 53.617188 113.398438 54.738281 114.167969 55.78125 C 114.941406 56.832031 115.617188 57.742188 116.191406 58.519531 C 116.707031 59.214844 117.050781 59.683594 117.226562 59.921875 L 117.226562 67.453125 C 117.226562 67.640625 117.300781 67.808594 117.4375 67.941406 C 117.578125 68.078125 117.746094 68.144531 117.933594 68.144531 C 118.117188 68.144531 118.289062 68.078125 118.425781 67.941406 C 118.566406 67.808594 118.640625 67.640625 118.640625 67.453125 L 118.640625 59.691406 C 118.640625 59.566406 118.59375 59.4375 118.5 59.28125 Z M 138.246094 51.855469 C 137.636719 50.4375 136.792969 49.1875 135.746094 48.140625 C 134.695312 47.089844 133.441406 46.25 132.03125 45.640625 C 130.613281 45.027344 129.082031 44.714844 127.492188 44.714844 L 124.269531 44.714844 L 118.011719 53.847656 L 111.214844 44.414062 C 111.03125 44.191406 110.832031 44.148438 110.699219 44.148438 C 110.519531 44.148438 110.355469 44.210938 110.203125 44.335938 C 110.039062 44.46875 109.949219 44.65625 109.949219 44.867188 C 109.949219 45.023438 110 45.15625 110.09375 45.261719 L 117.40625 55.4375 C 117.574219 55.652344 117.792969 55.769531 118.046875 55.769531 C 118.300781 55.769531 118.511719 55.65625 118.632812 55.453125 C 118.75 55.292969 118.996094 54.960938 119.359375 54.441406 C 119.730469 53.917969 124.539062 46.828125 124.832031 46.359375 C 124.890625 46.265625 124.941406 46.191406 124.984375 46.117188 C 125.265625 46.117188 125.550781 46.113281 125.828125 46.105469 C 126.375 46.097656 126.933594 46.09375 127.480469 46.09375 C 128.890625 46.09375 130.234375 46.367188 131.488281 46.90625 C 132.742188 47.441406 133.835938 48.179688 134.757812 49.097656 C 135.671875 50.015625 136.40625 51.117188 136.949219 52.371094 C 137.488281 53.625 137.761719 54.972656 137.761719 56.382812 C 137.761719 57.789062 137.488281 59.128906 136.953125 60.359375 C 136.417969 61.597656 135.675781 62.683594 134.746094 63.601562 C 133.820312 64.523438 132.71875 65.257812 131.480469 65.800781 C 130.238281 66.339844 128.894531 66.621094 127.480469 66.636719 C 126.941406 66.65625 126.386719 66.667969 125.832031 66.667969 L 124.808594 66.667969 C 124.414062 66.667969 124.09375 66.988281 124.09375 67.382812 C 124.09375 67.574219 124.167969 67.757812 124.304688 67.890625 C 124.4375 68.023438 124.617188 68.097656 124.808594 68.097656 C 124.808594 68.097656 124.8125 68.097656 124.8125 68.097656 L 127.496094 68.078125 C 129.085938 68.058594 130.613281 67.742188 132.03125 67.140625 C 133.445312 66.539062 134.699219 65.703125 135.75 64.652344 C 136.796875 63.601562 137.640625 62.359375 138.25 60.949219 C 138.863281 59.542969 139.171875 58.007812 139.171875 56.394531 C 139.167969 54.804688 138.855469 53.277344 138.246094 51.855469 Z M 123 29.011719 C 108.789062 29.011719 97.269531 40.53125 97.269531 54.742188 C 97.269531 68.953125 108.789062 80.476562 123 80.476562 C 137.210938 80.476562 148.730469 68.953125 148.730469 54.742188 C 148.730469 40.53125 137.210938 29.011719 123 29.011719 Z M 123 79.070312 C 109.5625 79.070312 98.667969 68.175781 98.667969 54.738281 C 98.667969 41.300781 109.5625 30.410156 123 30.410156 C 136.4375 30.410156 147.332031 41.304688 147.332031 54.742188 C 147.332031 68.179688 136.4375 79.070312 123 79.070312 Z M 123 79.070312 " fill-opacity="1" fill-rule="nonzero"/></g><g clip-path="url(#c75069f10f)"><g transform="matrix(1, 0, 0, 1, 0, 183)"><g clip-path="url(#ac6279fc32)"><g fill="#0041a0" fill-opacity="1"><g transform="translate(0.990377, 15.420731)"><g><path d="M 11.9375 -10.484375 L 7.328125 -4.25 L 7.328125 0 L 5.71875 0 L 5.71875 -4.171875 L 0.828125 -10.484375 L 2.96875 -10.484375 L 6.5625 -5.671875 L 9.984375 -10.484375 Z M 11.9375 -10.484375 "/></g></g></g><g fill="#0041a0" fill-opacity="1"><g transform="translate(24.340201, 15.420731)"><g><path d="M 7.5 -10.484375 C 8.71875 -10.484375 9.632812 -10.253906 10.25 -9.796875 C 10.863281 -9.347656 11.171875 -8.695312 11.171875 -7.84375 C 11.171875 -7.375 11.039062 -6.953125 10.78125 -6.578125 C 10.519531 -6.203125 10.140625 -5.914062 9.640625 -5.71875 C 10.003906 -5.59375 10.34375 -5.421875 10.65625 -5.203125 C 10.976562 -4.984375 11.234375 -4.695312 11.421875 -4.34375 C 11.617188 -4 11.71875 -3.578125 11.71875 -3.078125 C 11.71875 -2.472656 11.597656 -1.96875 11.359375 -1.5625 C 11.128906 -1.164062 10.820312 -0.851562 10.4375 -0.625 C 10.0625 -0.394531 9.644531 -0.234375 9.1875 -0.140625 C 8.726562 -0.046875 8.269531 0 7.8125 0 L 2.28125 0 L 2.28125 -10.484375 Z M 7.484375 -8.921875 L 3.890625 -8.921875 L 3.890625 -6.203125 L 7.65625 -6.203125 C 8.144531 -6.210938 8.578125 -6.332031 8.953125 -6.5625 C 9.328125 -6.800781 9.515625 -7.140625 9.515625 -7.578125 C 9.515625 -8.066406 9.316406 -8.410156 8.921875 -8.609375 C 8.535156 -8.816406 8.054688 -8.921875 7.484375 -8.921875 Z M 7.734375 -4.625 L 3.890625 -4.625 L 3.890625 -1.5625 L 7.8125 -1.5625 C 8.46875 -1.5625 9.007812 -1.6875 9.4375 -1.9375 C 9.863281 -2.1875 10.078125 -2.578125 10.078125 -3.109375 C 10.078125 -3.503906 9.957031 -3.8125 9.71875 -4.03125 C 9.476562 -4.25 9.175781 -4.398438 8.8125 -4.484375 C 8.457031 -4.578125 8.097656 -4.625 7.734375 -4.625 Z M 7.734375 -4.625 "/></g></g></g><g fill="#0041a0" fill-opacity="1"><g transform="translate(48.139059, 15.420731)"><g><path d="M 2.28125 -10.484375 L 10.203125 -10.484375 L 10.203125 -8.921875 L 3.890625 -8.921875 L 3.890625 -6.15625 L 9.390625 -6.15625 L 9.390625 -4.59375 L 3.890625 -4.59375 L 3.890625 -1.5625 L 10.203125 -1.5625 L 10.203125 0 L 2.28125 0 Z M 2.28125 -10.484375 "/></g></g></g><g fill="#0041a0" fill-opacity="1"><g transform="translate(70.890157, 15.420731)"><g><path d="M 11.171875 -7.21875 C 11.171875 -6.507812 10.953125 -5.867188 10.515625 -5.296875 C 10.078125 -4.734375 9.523438 -4.332031 8.859375 -4.09375 L 11.703125 0.015625 L 9.703125 0 L 7.03125 -3.890625 L 3.890625 -3.890625 L 3.890625 0 L 2.28125 0 L 2.28125 -10.484375 L 7.796875 -10.484375 C 8.390625 -10.484375 8.9375 -10.34375 9.4375 -10.0625 C 9.945312 -9.78125 10.363281 -9.394531 10.6875 -8.90625 C 11.007812 -8.414062 11.171875 -7.851562 11.171875 -7.21875 Z M 7.40625 -8.921875 L 3.890625 -8.921875 L 3.890625 -5.453125 L 7.5625 -5.453125 C 7.914062 -5.453125 8.238281 -5.53125 8.53125 -5.6875 C 8.820312 -5.851562 9.046875 -6.070312 9.203125 -6.34375 C 9.367188 -6.613281 9.453125 -6.90625 9.453125 -7.21875 C 9.453125 -7.539062 9.359375 -7.832031 9.171875 -8.09375 C 8.992188 -8.351562 8.75 -8.554688 8.4375 -8.703125 C 8.125 -8.847656 7.78125 -8.921875 7.40625 -8.921875 Z M 7.40625 -8.921875 "/></g></g></g><g fill="#0041a0" fill-opacity="1"><g transform="translate(94.913523, 15.420731)"><g><path d="M 7.140625 -10.484375 C 8.046875 -10.484375 8.84375 -10.34375 9.53125 -10.0625 C 10.226562 -9.789062 10.804688 -9.410156 11.265625 -8.921875 C 11.734375 -8.441406 12.082031 -7.882812 12.3125 -7.25 C 12.550781 -6.613281 12.671875 -5.941406 12.671875 -5.234375 C 12.671875 -4.273438 12.460938 -3.398438 12.046875 -2.609375 C 11.628906 -1.816406 11.007812 -1.179688 10.1875 -0.703125 C 9.375 -0.234375 8.359375 0 7.140625 0 L 2.28125 0 L 2.28125 -10.484375 Z M 7.0625 -1.5625 C 7.976562 -1.5625 8.722656 -1.722656 9.296875 -2.046875 C 9.867188 -2.378906 10.289062 -2.820312 10.5625 -3.375 C 10.832031 -3.9375 10.96875 -4.554688 10.96875 -5.234375 C 10.96875 -5.898438 10.832031 -6.507812 10.5625 -7.0625 C 10.289062 -7.625 9.867188 -8.070312 9.296875 -8.40625 C 8.722656 -8.75 7.976562 -8.921875 7.0625 -8.921875 L 3.890625 -8.921875 L 3.890625 -1.5625 Z M 7.0625 -1.5625 "/></g></g></g><g fill="#0041a0" fill-opacity="1"><g transform="translate(119.670326, 15.420731)"><g><path d="M 8.546875 0 L 2.21875 0 L 2.21875 -1.5625 L 4.5625 -1.5625 L 4.5625 -8.921875 L 2.21875 -8.921875 L 2.21875 -10.484375 L 8.546875 -10.484375 L 8.546875 -8.921875 L 6.1875 -8.921875 L 6.1875 -1.5625 L 8.546875 -1.5625 Z M 8.546875 0 "/></g></g></g><g fill="#0041a0" fill-opacity="1"><g transform="translate(141.029424, 15.420731)"><g><path d="M 7.578125 -10.5625 C 8.273438 -10.5625 8.921875 -10.476562 9.515625 -10.3125 C 10.117188 -10.144531 10.644531 -9.925781 11.09375 -9.65625 C 11.539062 -9.382812 11.898438 -9.09375 12.171875 -8.78125 L 11.125 -7.640625 C 10.632812 -8.035156 10.085938 -8.359375 9.484375 -8.609375 C 8.890625 -8.867188 8.253906 -9 7.578125 -9 C 6.742188 -9 5.992188 -8.832031 5.328125 -8.5 C 4.671875 -8.175781 4.144531 -7.726562 3.75 -7.15625 C 3.363281 -6.59375 3.171875 -5.953125 3.171875 -5.234375 C 3.171875 -4.410156 3.375 -3.71875 3.78125 -3.15625 C 4.195312 -2.59375 4.734375 -2.160156 5.390625 -1.859375 C 6.054688 -1.566406 6.769531 -1.421875 7.53125 -1.421875 C 8.226562 -1.421875 8.863281 -1.519531 9.4375 -1.71875 C 10.019531 -1.914062 10.476562 -2.179688 10.8125 -2.515625 C 11.15625 -2.859375 11.328125 -3.253906 11.328125 -3.703125 L 7.546875 -3.703125 L 7.546875 -5.28125 L 13.046875 -5.28125 C 13.054688 -5.15625 13.066406 -5.023438 13.078125 -4.890625 C 13.097656 -4.765625 13.109375 -4.640625 13.109375 -4.515625 C 13.109375 -3.972656 13.023438 -3.453125 12.859375 -2.953125 C 12.691406 -2.460938 12.457031 -2.039062 12.15625 -1.6875 C 11.695312 -1.113281 11.0625 -0.660156 10.25 -0.328125 C 9.4375 -0.00390625 8.492188 0.15625 7.421875 0.15625 C 6.617188 0.15625 5.859375 0.0351562 5.140625 -0.203125 C 4.429688 -0.453125 3.800781 -0.804688 3.25 -1.265625 C 2.695312 -1.734375 2.265625 -2.300781 1.953125 -2.96875 C 1.640625 -3.644531 1.484375 -4.398438 1.484375 -5.234375 C 1.484375 -5.992188 1.632812 -6.695312 1.9375 -7.34375 C 2.25 -7.988281 2.679688 -8.550781 3.234375 -9.03125 C 3.796875 -9.519531 4.441406 -9.894531 5.171875 -10.15625 C 5.910156 -10.425781 6.710938 -10.5625 7.578125 -10.5625 Z M 7.578125 -10.5625 "/></g></g></g><g fill="#0041a0" fill-opacity="1"><g transform="translate(166.115527, 15.420731)"><g><path d="M 8.546875 0 L 2.21875 0 L 2.21875 -1.5625 L 4.5625 -1.5625 L 4.5625 -8.921875 L 2.21875 -8.921875 L 2.21875 -10.484375 L 8.546875 -10.484375 L 8.546875 -8.921875 L 6.1875 -8.921875 L 6.1875 -1.5625 L 8.546875 -1.5625 Z M 8.546875 0 "/></g></g></g><g fill="#0041a0" fill-opacity="1"><g transform="translate(187.474625, 15.420731)"><g><path d="M 4.75 0 L 4.75 -8.921875 L 1.15625 -8.921875 L 1.15625 -10.484375 L 10.0625 -10.484375 L 10.0625 -8.921875 L 6.359375 -8.921875 L 6.359375 0 Z M 4.75 0 "/></g></g></g><g fill="#0041a0" fill-opacity="1"><g transform="translate(209.282758, 15.420731)"><g><path d="M 10.5 0 L 9.375 -2.515625 L 3.828125 -2.515625 L 2.6875 0 L 1.015625 0 L 5.75 -10.484375 L 7.5625 -10.484375 L 12.265625 0 Z M 5.796875 -6.828125 L 4.53125 -4.078125 L 8.671875 -4.078125 L 7.375 -6.890625 C 7.25 -7.203125 7.117188 -7.515625 6.984375 -7.828125 C 6.859375 -8.140625 6.726562 -8.46875 6.59375 -8.8125 C 6.457031 -8.457031 6.320312 -8.117188 6.1875 -7.796875 C 6.0625 -7.472656 5.929688 -7.148438 5.796875 -6.828125 Z M 5.796875 -6.828125 "/></g></g></g><g fill="#0041a0" fill-opacity="1"><g transform="translate(233.156451, 15.420731)"><g><path d="M 10.140625 -1.5625 L 10.140625 0 L 2.28125 0 L 2.28125 -10.484375 L 3.890625 -10.484375 L 3.890625 -1.5625 Z M 10.140625 -1.5625 "/></g></g></g></g></g></g></g></g></svg>